<mxfile host="65bd71144e">
    <diagram id="HAJL1E_v7I3CfRbBSvqQ" name="第 1 页">
        <mxGraphModel dx="965" dy="766" grid="1" gridSize="10" guides="1" tooltips="1" connect="1" arrows="1" fold="1" page="1" pageScale="1" pageWidth="827" pageHeight="1169" math="0" shadow="0">
            <root>
                <mxCell id="0"/>
                <mxCell id="1" parent="0"/>
                <mxCell id="3" value="&lt;h1&gt;IoC功能&lt;/h1&gt;&lt;p&gt;托管对象，并初始化所有对象。提供注册方法，和获取方法&lt;/p&gt;" style="text;html=1;strokeColor=none;fillColor=none;spacing=5;spacingTop=-20;whiteSpace=wrap;overflow=hidden;rounded=0;" vertex="1" parent="1">
                    <mxGeometry x="70" y="40" width="190" height="120" as="geometry"/>
                </mxCell>
                <mxCell id="4" value="" style="rounded=0;whiteSpace=wrap;html=1;" vertex="1" parent="1">
                    <mxGeometry x="214" y="190" width="400" height="210" as="geometry"/>
                </mxCell>
                <mxCell id="5" value="Registry" style="rounded=1;whiteSpace=wrap;html=1;" vertex="1" parent="1">
                    <mxGeometry x="114" y="265" width="120" height="60" as="geometry"/>
                </mxCell>
                <mxCell id="6" value="Get" style="rounded=1;whiteSpace=wrap;html=1;" vertex="1" parent="1">
                    <mxGeometry x="594" y="265" width="120" height="60" as="geometry"/>
                </mxCell>
                <mxCell id="7" value="controller(impl)" style="ellipse;whiteSpace=wrap;html=1;aspect=fixed;" vertex="1" parent="1">
                    <mxGeometry x="300" y="255" width="80" height="80" as="geometry"/>
                </mxCell>
                <mxCell id="8" value="ioc容器" style="text;html=1;strokeColor=none;fillColor=none;align=center;verticalAlign=middle;whiteSpace=wrap;rounded=0;" vertex="1" parent="1">
                    <mxGeometry x="380" y="160" width="60" height="30" as="geometry"/>
                </mxCell>
            </root>
        </mxGraphModel>
    </diagram>
</mxfile>